<svg width="150" height="80" viewBox="0 0 150 80" fill="none" xmlns="http://www.w3.org/2000/svg">
<g clip-path="url(#clip0_129_4052)">
<path d="M12.8428 61H26.7435C33.3349 61 38.6784 55.5262 38.6784 48.774H24.7777C18.1862 48.774 12.8428 54.2478 12.8428 61Z" fill="#2B33F2"/>
<path d="M13.4644 31.226V49.2055C20.0558 49.2055 25.3993 43.7317 25.3993 36.9795V19C18.8078 19 13.4644 24.4738 13.4644 31.226Z" fill="#8C30F5"/>
<path d="M52.1574 19H38.2567C31.6652 19 26.3218 24.4738 26.3218 31.226H40.2225C46.8139 31.226 52.1574 25.7522 52.1574 19Z" fill="#FE9A22"/>
<path d="M52.1576 48.0548V30.0753C45.5661 30.0753 40.2227 35.5491 40.2227 42.3014V60.2808C46.8141 60.2808 52.1576 54.807 52.1576 48.0548Z" fill="#2EC5CE"/>
</g>
<path d="M76.56 20.56H77.44V34H74.74V26.96L71.42 31.12H70.54L67.22 26.96V34H64.52V20.56H65.4L70.98 27.7L76.56 20.56ZM79.717 27.4C79.6904 25.5067 80.377 23.8867 81.777 22.54C83.177 21.18 84.837 20.52 86.757 20.56C88.0104 20.56 89.1437 20.8533 90.157 21.44C91.1837 22.0133 91.9904 22.8133 92.577 23.84L90.537 25.28C89.5904 23.8 88.3304 23.06 86.757 23.06C85.5304 23.06 84.5104 23.4733 83.697 24.3C82.897 25.1267 82.497 26.1667 82.497 27.42C82.497 28.6733 82.897 29.7067 83.697 30.52C84.5104 31.3333 85.5304 31.74 86.757 31.74C88.3304 31.74 89.5904 31 90.537 29.52L92.577 30.96C92.0037 31.9867 91.2037 32.7933 90.177 33.38C89.1504 33.9533 88.0037 34.24 86.737 34.24C84.8037 34.28 83.137 33.6267 81.737 32.28C80.3504 30.92 79.677 29.2933 79.717 27.4ZM103.196 34L102.456 32.28H97.0563L96.3163 34H93.4163L99.3163 20.56H100.216L106.096 34H103.196ZM101.516 30.06L99.7563 25.6L97.9963 30.06H101.516ZM107.899 34V20.8H112.219C114.326 20.7733 116.059 21.38 117.419 22.62C118.779 23.8467 119.446 25.4267 119.419 27.36C119.446 29.28 118.772 30.8733 117.399 32.14C116.026 33.4067 114.299 34.0267 112.219 34H107.899ZM110.599 31.56H112.199C113.532 31.56 114.606 31.18 115.419 30.42C116.232 29.6467 116.639 28.6267 116.639 27.36C116.639 26.08 116.239 25.0733 115.439 24.34C114.639 23.6067 113.559 23.24 112.199 23.24H110.599V31.56ZM67.5 59V48.24H63.28V45.8H74.44V48.24H70.2V59H67.5ZM83.6939 54.96H76.7539C76.9139 55.5867 77.2339 56.0733 77.7139 56.42C78.2072 56.7533 78.8139 56.92 79.5339 56.92C80.5072 56.92 81.4272 56.5867 82.2939 55.92L83.4139 57.76C82.2272 58.7467 80.9072 59.24 79.4539 59.24C77.9339 59.2667 76.6406 58.7733 75.5739 57.76C74.5206 56.7333 74.0072 55.5 74.0339 54.06C74.0072 52.6333 74.5072 51.4067 75.5339 50.38C76.5606 49.3533 77.7872 48.8533 79.2139 48.88C80.5739 48.88 81.6872 49.32 82.5539 50.2C83.4339 51.08 83.8739 52.1733 83.8739 53.48C83.8739 53.96 83.8139 54.4533 83.6939 54.96ZM76.7539 53.06H81.2539C81.2406 52.46 81.0272 51.98 80.6139 51.62C80.2139 51.2467 79.7139 51.06 79.1139 51.06C78.5406 51.06 78.0406 51.24 77.6139 51.6C77.1872 51.96 76.9006 52.4467 76.7539 53.06ZM95.0806 52.86V59H92.4006V53.22C92.4006 52.6467 92.2273 52.1867 91.8806 51.84C91.5473 51.48 91.1073 51.3 90.5606 51.3C90.014 51.3 89.5606 51.48 89.2006 51.84C88.854 52.1867 88.6806 52.6467 88.6806 53.22V59H85.9806V49.1H88.4606V50C89.2073 49.2533 90.174 48.88 91.3606 48.88C92.5073 48.88 93.414 49.24 94.0806 49.96C94.7473 50.68 95.0806 51.6467 95.0806 52.86ZM104.88 44H107.58V59H105.1V57.78C104.42 58.7533 103.36 59.24 101.92 59.24C100.533 59.24 99.3865 58.7533 98.4798 57.78C97.5732 56.7933 97.1198 55.5533 97.1198 54.06C97.1198 52.5667 97.5732 51.3333 98.4798 50.36C99.3865 49.3733 100.533 48.88 101.92 48.88C103.173 48.88 104.16 49.2733 104.88 50.06V44ZM104.2 56.06C104.68 55.58 104.92 54.9133 104.92 54.06C104.92 53.2067 104.68 52.54 104.2 52.06C103.72 51.5667 103.127 51.32 102.42 51.32C101.687 51.32 101.073 51.5733 100.58 52.08C100.1 52.5867 99.8598 53.24 99.8598 54.04C99.8598 54.8533 100.1 55.5133 100.58 56.02C101.06 56.5267 101.673 56.78 102.42 56.78C103.14 56.78 103.733 56.54 104.2 56.06ZM119.358 54.96H112.418C112.578 55.5867 112.898 56.0733 113.378 56.42C113.871 56.7533 114.478 56.92 115.198 56.92C116.171 56.92 117.091 56.5867 117.958 55.92L119.078 57.76C117.891 58.7467 116.571 59.24 115.118 59.24C113.598 59.2667 112.305 58.7733 111.238 57.76C110.185 56.7333 109.671 55.5 109.698 54.06C109.671 52.6333 110.171 51.4067 111.198 50.38C112.225 49.3533 113.451 48.8533 114.878 48.88C116.238 48.88 117.351 49.32 118.218 50.2C119.098 51.08 119.538 52.1733 119.538 53.48C119.538 53.96 119.478 54.4533 119.358 54.96ZM112.418 53.06H116.918C116.905 52.46 116.691 51.98 116.278 51.62C115.878 51.2467 115.378 51.06 114.778 51.06C114.205 51.06 113.705 51.24 113.278 51.6C112.851 51.96 112.565 52.4467 112.418 53.06ZM127.725 49.1V51.48H127.005C126.178 51.48 125.525 51.7 125.045 52.14C124.578 52.58 124.345 53.22 124.345 54.06V59H121.645V49.1H124.125V50.28C124.818 49.4133 125.725 48.98 126.845 48.98C127.178 48.98 127.471 49.02 127.725 49.1ZM128.499 57.32L129.859 55.68C130.712 56.5733 131.639 57.02 132.639 57.02C133.012 57.02 133.312 56.9533 133.539 56.82C133.779 56.6733 133.899 56.4667 133.899 56.2C133.899 56 133.825 55.8467 133.679 55.74C133.545 55.62 133.279 55.4733 132.879 55.3L131.819 54.86C130.872 54.4733 130.185 54.0533 129.759 53.6C129.332 53.1333 129.119 52.5467 129.119 51.84C129.119 50.92 129.452 50.2 130.119 49.68C130.785 49.1467 131.665 48.88 132.759 48.88C134.225 48.88 135.412 49.3733 136.319 50.36L134.959 52.02C134.292 51.3933 133.552 51.08 132.739 51.08C132.032 51.08 131.679 51.3133 131.679 51.78C131.679 51.9667 131.752 52.12 131.899 52.24C132.045 52.36 132.319 52.5 132.719 52.66L133.679 53.06C134.665 53.46 135.372 53.8867 135.799 54.34C136.239 54.7933 136.459 55.3733 136.459 56.08C136.459 57.0667 136.092 57.84 135.359 58.4C134.639 58.96 133.719 59.24 132.599 59.24C130.825 59.24 129.459 58.6 128.499 57.32Z" fill="#04111F"/>
<defs>
<clipPath id="clip0_129_4052">
<rect width="41" height="42" fill="white" transform="translate(12 19)"/>
</clipPath>
</defs>
</svg>
